<svg width="26" height="26" viewBox="0 0 26 26" fill="none" xmlns="http://www.w3.org/2000/svg">
<g clip-path="url(#clip0)">
<path d="M25.7026 24.2669L20.3505 18.9147C20.3423 18.9062 20.3341 18.898 20.3256 18.8898L7.12331 5.68752C7.11437 5.67822 7.10534 5.66918 7.09609 5.6603L1.73469 0.298894C1.33804 -0.0977597 0.695041 -0.0977597 0.298438 0.298894C-0.0981654 0.695548 -0.0982162 1.33854 0.298438 1.73515L4.83769 6.2744C2.52393 8.09608 1.08951 10.1303 0.668685 10.7701C-0.222732 12.1253 -0.222732 13.8768 0.668685 15.232C1.21266 16.059 2.74641 18.1821 5.23404 20.0311C7.75275 21.9032 10.3733 22.8524 13.0228 22.8524C15.2067 22.8524 17.3761 22.2026 19.4825 20.9192L24.2665 25.7032C24.4648 25.9015 24.7247 26.0007 24.9846 26.0007C25.2445 26.0007 25.5044 25.9015 25.7027 25.7032C26.0993 25.3065 26.0993 24.6635 25.7026 24.2669ZM9.72353 11.1602L11.121 12.5576C10.9741 13.1999 11.1508 13.9011 11.651 14.4014C12.1513 14.9016 12.8525 15.0782 13.4948 14.9314L14.8419 16.2786C14.286 16.592 13.6562 16.7587 13.0006 16.7587C10.9286 16.7587 9.24293 15.073 9.24293 13.0011C9.24288 12.348 9.41005 11.717 9.72353 11.1602ZM13.0227 20.821C8.09172 20.821 4.00376 16.6062 2.3656 14.1157C1.92014 13.4385 1.92014 12.5634 2.3656 11.8863C2.7526 11.2979 4.10177 9.38613 6.28506 7.72182L8.25193 9.68869C7.57638 10.6545 7.21167 11.8037 7.21167 13.001C7.21167 16.193 9.80853 18.7899 13.0006 18.7899C14.2027 18.7899 15.3489 18.4259 16.3134 17.7501L17.9977 19.4344C16.3516 20.3553 14.6828 20.821 13.0227 20.821Z" fill="black"/>
<path d="M25.358 10.8086C25.3528 10.8001 25.3475 10.7916 25.3421 10.7832C24.8028 9.95517 23.2812 7.82941 20.8047 5.97761C18.2942 4.10048 15.6759 3.14868 13.0227 3.14868C12.0128 3.14868 10.9891 3.29143 9.98012 3.57286C9.4398 3.72363 9.12404 4.2838 9.27471 4.82401C9.42543 5.36428 9.9854 5.67998 10.5259 5.52942C11.3572 5.2975 12.1972 5.17994 13.0226 5.17994C17.9327 5.17994 21.9822 9.36316 23.6192 11.8599C23.6245 11.8684 23.6299 11.8768 23.6354 11.8852C23.8535 12.2169 23.9689 12.6024 23.9689 13C23.9689 13.3976 23.8535 13.783 23.6354 14.1147C23.1469 14.8574 22.4922 15.6721 21.792 16.4087C21.4055 16.8153 21.4218 17.4581 21.8283 17.8445C22.0249 18.0314 22.2766 18.124 22.5279 18.124C22.7964 18.124 23.0646 18.0182 23.2642 17.8081C24.265 16.7553 24.9413 15.8254 25.3324 15.2309C25.7692 14.5667 26.0001 13.7953 26.0001 12.9999C26 12.2203 25.7782 11.4636 25.358 10.8086Z" fill="black"/>
<path d="M18.6547 11.7538C18.1773 9.57988 16.4669 7.85402 14.297 7.35708C13.7503 7.2321 13.2056 7.57361 13.0803 8.12032C12.9552 8.66709 13.2969 9.21177 13.8436 9.33699C15.2513 9.65935 16.361 10.779 16.6707 12.1894C16.7748 12.6639 17.1951 12.9874 17.6617 12.9874C17.7338 12.9874 17.8071 12.9797 17.8805 12.9636C18.4283 12.8433 18.7749 12.3017 18.6547 11.7538Z" fill="black"/>
</g>
<defs>
<clipPath id="clip0">
<rect width="26" height="26" fill="white"/>
</clipPath>
</defs>
</svg>
