<svg width="26" height="26" viewBox="0 0 26 26" fill="none" xmlns="http://www.w3.org/2000/svg">
<path d="M15.086 20.626C14.94 20.879 14.82 21.123 14.72 21.372C14.156 22.761 12.837 26 8.95398 26C5.41198 26 4.31198 22.335 4.31198 21C4.31198 20.447 4.75998 20 5.31198 20C5.86398 20 6.31198 20.447 6.31198 21C6.31198 21.03 6.59198 24 8.95398 24C11.067 24 12.017 22.708 12.867 20.623C13.001 20.289 13.161 19.962 13.354 19.626C13.629 19.147 14.243 18.983 14.72 19.26C15.199 19.536 15.363 20.147 15.086 20.626ZM24.698 24.71C24.503 24.905 24.247 25.003 23.991 25.003C23.735 25.003 23.479 24.905 23.284 24.71L12.524 13.95C12.524 13.953 12.525 13.956 12.526 13.959L8.37598 9.807C8.37698 9.806 8.37798 9.805 8.37898 9.804L1.30198 2.728C0.910978 2.337 0.910978 1.705 1.30198 1.314C1.69298 0.923 2.32498 0.923 2.71598 1.314L5.86898 4.467C7.03798 1.841 9.90098 0 13.109 0C17.054 0 21.312 3.291 21.312 8.607C21.312 12.669 19.807 15.02 18.242 16.84L24.698 23.296C25.088 23.687 25.088 24.319 24.698 24.71ZM16.825 15.424C18.192 13.815 19.312 11.942 19.312 8.607C19.312 4.526 16.092 2 13.109 2C10.017 2 7.94198 4.039 7.44598 6.044L9.57998 8.178C10.734 4.811 11.618 4 13.734 4C15.687 4 17.319 5.418 17.319 8.133C17.319 8.555 17.281 9 16.922 9C16.005 9 17.25 6 14.234 6C12.314 6 11.38 7.602 11.688 10.286L16.825 15.424ZM7.31198 17.115C7.31198 17.424 7.31198 19.008 9.31198 19.008C10.492 19.008 11.662 17.96 12.226 16.487L9.26298 13.524C9.28198 13.604 9.31198 13.676 9.31198 13.772C9.31198 15.602 7.31198 15.101 7.31198 17.115Z" fill="#030104"/>
</svg>
