<svg width="26" height="26" viewBox="0 0 26 26" fill="none" xmlns="http://www.w3.org/2000/svg">
<path d="M11.9075 5.12432C13.3211 5.12432 14.4695 3.9772 14.4695 2.56219C14.4695 1.14675 13.3211 0 11.9075 0C10.4923 0 9.34479 1.14675 9.34479 2.56219C9.34479 3.9772 10.4923 5.12432 11.9075 5.12432Z" fill="black"/>
<path d="M15.8668 19.643C15.186 22.007 13.0066 23.7431 10.4263 23.7431C7.30158 23.7431 4.76048 21.2019 4.76048 18.0782C4.76048 15.7659 6.15546 13.7756 8.14625 12.8962V10.4946C4.88605 11.4765 2.50397 14.5029 2.50397 18.0782C2.50397 22.446 6.05785 25.9999 10.4262 25.9999C13.6097 25.9999 16.3536 24.1079 17.6118 21.3932L16.7173 19.6358C16.4662 19.6378 16.1753 19.6405 15.8668 19.643Z" fill="black"/>
<path d="M23.3314 22.6844L19.8995 15.9371C19.6433 15.4323 19.1255 15.1145 18.5591 15.1145H14.1636V14.1122H17.9466C18.3243 14.1122 18.6418 13.9147 18.8469 13.6303C18.9802 13.445 19.075 13.2298 19.075 12.9837C19.075 12.3606 18.5704 11.8553 17.9466 11.8553H15.6675H14.1636V8.45568C14.1636 7.52069 13.4703 6.19885 11.9075 6.19885C10.6612 6.19885 9.65076 7.20942 9.65076 8.45568V15.8212C9.65076 17.0927 10.6815 18.1234 11.9529 18.1234H16.0891H17.6367L20.6503 24.0485C20.9151 24.5704 21.4436 24.8716 21.9921 24.8716C22.222 24.8716 22.4551 24.819 22.6729 24.7075C23.4146 24.3313 23.7092 23.425 23.3314 22.6844Z" fill="black"/>
</svg>
